# xmcd
#
# Track frame offsets:
#	150
#	16256
#	33780
#	52811
#	70721
#	89000
#	105310
#	125446
#	142008
#	157087
#	178230
#	196229
#
# Disc length: 2829 seconds
# Revision: 0
# Processed by: cddbd v1.4PL0 Copyright (c) Steve Scherf et al.
# Submitted via: cdrLabel 6.0
#
DISCID=9c0b0b0c
DTITLE=Maria Conchita Alonso - Grandes Exitos
DYEAR=2003
DGENRE=Pop
TTITLE0=Noche De Copas
TTITLE1=O Ella O Yo
TTITLE2=Acariciame
TTITLE3=La Loca
TTITLE4=Entre La Espada y La Pared
TTITLE5=Lluvia De Amor
TTITLE6=Otra Mentira Mas
TTITLE7=Y Es Que Llegaste Tu
TTITLE8=Tu Eres El Hombre
TTITLE9=Dueo De Mi Cuerpo
TTITLE10=Ganar O Perder
TTITLE11=Tu Mi Hombre
EXTD=submitted by Tony, Caracas Venezuela
EXTT0=
EXTT1=
EXTT2=
EXTT3=
EXTT4=
EXTT5=
EXTT6=
EXTT7=
EXTT8=
EXTT9=
EXTT10=
EXTT11=
PLAYORDER=
